HIERARCHY
ROOT Hips
{
	OFFSET -0.001795 -0.223333 0.028219
	CHANNELS 6 Xposition Yposition Zposition Zrotation Yrotation Xrotation 
	JOINT LeftUpLeg
	{
		OFFSET 0.069520 -0.091406 -0.006815
		CHANNELS 3 Zrotation Yrotation Xrotation
		JOINT LeftLeg
		{
			OFFSET 0.034277 -0.375199 -0.004496
			CHANNELS 3 Zrotation Yrotation Xrotation
			JOINT LeftFoot
			{
				OFFSET -0.013596 -0.397961 -0.043693
				CHANNELS 3 Zrotation Yrotation Xrotation
				JOINT LeftToe
				{
					OFFSET 0.026358 -0.055791 0.119288
					CHANNELS 3 Zrotation Yrotation Xrotation
					End Site
					{
						OFFSET 0.000000 0.000000 0.000000
					}
				}
			}
		}
	}
	JOINT RightUpLeg
	{
		OFFSET -0.067670 -0.090522 -0.004320
		CHANNELS 3 Zrotation Yrotation Xrotation
		JOINT RightLeg
		{
			OFFSET -0.038290 -0.382569 -0.008850
			CHANNELS 3 Zrotation Yrotation Xrotation
			JOINT RightFoot
			{
				OFFSET 0.015774 -0.398415 -0.042312
				CHANNELS 3 Zrotation Yrotation Xrotation
				JOINT RightToe
				{
					OFFSET -0.025372 -0.048144 0.123348
					CHANNELS 3 Zrotation Yrotation Xrotation
					End Site
					{
						OFFSET 0.000000 0.000000 0.000000
					}
				}
			}
		}
	}
	JOINT Spine
	{
		OFFSET -0.002533 0.108963 -0.026696
		CHANNELS 3 Zrotation Yrotation Xrotation
		JOINT Spine1
		{
			OFFSET 0.005487 0.135180 0.001092
			CHANNELS 3 Zrotation Yrotation Xrotation
			JOINT Spine2
			{
				OFFSET 0.001457 0.052922 0.025425
				CHANNELS 3 Zrotation Yrotation Xrotation
				JOINT Neck
				{
					OFFSET -0.002778 0.213870 -0.042857
					CHANNELS 3 Zrotation Yrotation Xrotation
					JOINT Head
					{
						OFFSET 0.005152 0.064970 0.051349
						CHANNELS 3 Zrotation Yrotation Xrotation
						End Site
						{
							OFFSET 0.000000 0.000000 0.000000
						}
					}
				}
				JOINT LeftShoulder
				{
					OFFSET 0.078845 0.121749 -0.034090
					CHANNELS 3 Zrotation Yrotation Xrotation
					JOINT LeftArm
					{
						OFFSET 0.090977 0.030469 -0.008868
						CHANNELS 3 Zrotation Yrotation Xrotation
						JOINT LeftForeArm
						{
							OFFSET 0.259612 -0.012772 -0.027456
							CHANNELS 3 Zrotation Yrotation Xrotation
							JOINT LeftHand
							{
								OFFSET 0.249234 0.008986 -0.001171
								CHANNELS 3 Zrotation Yrotation Xrotation
								End Site
								{
									OFFSET 0.000000 0.000000 0.000000
								}
							}
						}
					}
				}
				JOINT RightShoulder
				{
					OFFSET -0.081759 0.118833 -0.038615
					CHANNELS 3 Zrotation Yrotation Xrotation
					JOINT RightArm
					{
						OFFSET -0.096012 0.032551 -0.009143
						CHANNELS 3 Zrotation Yrotation Xrotation
						JOINT RightForeArm
						{
							OFFSET -0.253742 -0.013329 -0.021401
							CHANNELS 3 Zrotation Yrotation Xrotation
							JOINT RightHand
							{
								OFFSET -0.255298 0.007772 -0.005559
								CHANNELS 3 Zrotation Yrotation Xrotation
								End Site
								{
									OFFSET 0.000000 0.000000 0.000000
								}
							}
						}
					}
				}
			}
		}
	}
}
MOTION
Frames: 11
Frame Time: 0.050000
0.022256 0.946782 -0.323457 6.884711 -16.339549 17.335450 1.118811 -1.276667 -28.512290 -3.178288 0.718260 12.532977 -0.272658 1.760638 9.861404 0.000000 0.000000 0.000000 -15.750501 2.053009 -40.198314 -0.655338 1.722169 22.154400 2.126443 -2.210332 11.215445 0.000000 0.000000 0.000000 13.806446 -5.297769 47.411301 3.546568 -1.631708 7.399206 3.094252 2.972219 9.187046 6.498848 -4.293955 -6.766764 0.000000 0.000000 0.000000 -0.696985 -17.076487 6.571096 -42.845401 -1.785320 -4.480618 -63.079802 -62.838795 45.442446 0.000000 0.000000 0.000000 -19.476294 17.594929 5.038996 25.424115 0.598334 -2.348480 -6.278102 71.998548 -3.197295 0.000000 0.000000 0.000000 
0.023352 0.947308 -0.324741 6.856123 -16.375419 17.611052 1.086444 -1.283456 -28.102697 -3.082535 0.646778 11.332903 -0.633331 1.252685 10.433801 0.000000 0.000000 0.000000 -15.613380 2.092797 -40.158606 -0.818491 1.696411 21.447712 2.042873 -2.542385 11.460683 0.000000 0.000000 0.000000 13.314115 -5.081485 47.520684 3.468512 -1.591979 7.631233 2.983986 3.039497 8.973430 6.037603 -4.039223 -6.127869 0.000000 0.000000 0.000000 -1.460558 -17.146741 6.695054 -42.231357 -1.525081 -4.503486 -59.439971 -62.403755 42.264512 0.000000 0.000000 0.000000 -19.001243 17.161948 4.997887 25.212181 1.081154 -2.247311 -7.112557 72.219547 -3.751696 0.000000 0.000000 0.000000 
0.024387 0.947568 -0.325757 6.776708 -16.094226 17.747888 0.941982 -1.333001 -28.236708 -2.980321 0.600154 10.951811 -0.795133 1.060025 10.671849 0.000000 0.000000 0.000000 -15.520712 2.071598 -40.102958 -1.067228 1.691832 20.837471 1.900409 -3.072653 11.925178 0.000000 0.000000 0.000000 12.968320 -4.989469 47.475993 3.468473 -1.605602 8.406066 2.800216 2.696267 8.429386 5.392426 -3.702235 -5.075787 0.000000 0.000000 0.000000 -2.357943 -17.216690 6.858139 -40.935748 -0.837128 -4.558582 -57.539172 -62.784780 41.116812 0.000000 0.000000 0.000000 -18.819719 17.180789 5.063015 25.593195 1.222430 -2.244876 -9.099360 73.238229 -5.364903 0.000000 0.000000 0.000000 
0.025357 0.947414 -0.326772 6.768176 -15.832390 17.651377 0.700881 -1.402848 -28.315623 -3.039920 0.599025 10.723987 -1.080647 0.701505 11.064571 0.000000 0.000000 0.000000 -15.619921 2.010810 -40.202638 -0.869084 1.638586 20.938075 2.152267 -2.504878 11.931795 0.000000 0.000000 0.000000 12.866259 -4.998398 47.522416 3.163592 -1.455648 8.590748 2.566270 2.453838 8.553394 5.244897 -3.658806 -4.616503 0.000000 0.000000 0.000000 -2.194433 -17.099413 6.796479 -40.509806 -0.968314 -4.486921 -56.340384 -62.962869 40.403943 0.000000 0.000000 0.000000 -18.244743 16.676915 5.007045 25.406722 1.004070 -2.273473 -11.668549 74.621791 -7.494732 0.000000 0.000000 0.000000 
0.026298 0.947037 -0.328004 6.659163 -15.337713 17.346724 0.672053 -1.442345 -28.459988 -3.223254 0.645532 11.159398 -1.004895 0.843967 10.871718 0.000000 0.000000 0.000000 -15.466962 1.956883 -40.090541 -0.900856 1.658486 21.205287 1.884178 -2.843793 11.613713 0.000000 0.000000 0.000000 12.580443 -4.968043 47.637372 3.183548 -1.487493 8.671861 2.521001 2.602420 8.775241 4.941627 -3.466256 -4.318240 0.000000 0.000000 0.000000 -1.874945 -16.766233 6.583190 -39.709634 -1.078960 -4.387810 -56.071738 -63.645639 40.602119 0.000000 0.000000 0.000000 -18.293463 16.435544 4.901308 25.622360 0.434987 -2.390195 -15.164848 75.954297 -10.245431 0.000000 0.000000 0.000000 
0.027206 0.946277 -0.329523 6.440481 -15.112283 17.160351 0.903855 -1.403318 -28.732498 -3.687717 0.781554 11.888738 -0.897378 1.070556 10.909603 0.000000 0.000000 0.000000 -15.158974 2.005474 -40.290370 -0.889809 1.719071 21.887995 1.910609 -2.640843 11.378350 0.000000 0.000000 0.000000 12.143083 -4.784603 47.243954 2.946359 -1.365445 9.113377 2.816925 2.980657 8.812694 4.997044 -3.535935 -4.016515 0.000000 0.000000 0.000000 -1.467618 -16.780196 6.489083 -39.228807 -1.039451 -4.351899 -59.949279 -64.831233 44.296835 0.000000 0.000000 0.000000 -17.549534 16.385647 4.872541 24.933016 -0.473854 -2.459286 -21.577959 76.824715 -15.301662 0.000000 0.000000 0.000000 
0.027845 0.945705 -0.331507 6.375756 -14.603008 16.678124 0.878560 -1.445400 -28.868161 -3.784776 0.834025 12.887010 -1.194434 0.559541 10.644871 0.000000 0.000000 0.000000 -15.060399 1.929167 -40.108228 -0.525559 1.685197 22.780810 1.778370 -2.540612 10.793218 0.000000 0.000000 0.000000 11.996765 -4.817817 47.354563 2.988875 -1.409508 9.057276 3.019283 3.141340 8.800536 5.108746 -3.654897 -3.682822 0.000000 0.000000 0.000000 -1.698653 -16.671665 6.435363 -38.063822 -1.230590 -4.187025 -60.481163 -66.587983 45.989313 0.000000 0.000000 0.000000 -17.818506 16.463778 4.820416 24.203738 -0.849381 -2.436444 -29.034832 76.596486 -21.025564 0.000000 0.000000 0.000000 
0.027943 0.944580 -0.333867 6.104297 -14.196702 16.192690 1.200369 -1.396799 -28.946524 -3.887520 0.902927 14.046287 -1.146772 0.666683 10.546103 0.000000 0.000000 0.000000 -14.596915 1.976761 -40.197153 -0.559147 1.782037 23.781217 1.820753 -2.040655 10.121278 0.000000 0.000000 0.000000 11.680462 -4.726863 47.044293 2.960209 -1.409974 9.564430 3.255146 3.331044 8.588078 5.191458 -3.782942 -3.123079 0.000000 0.000000 0.000000 -1.813429 -16.383791 6.293853 -36.600686 -0.930491 -4.112171 -64.084269 -68.702622 50.504505 0.000000 0.000000 0.000000 -17.809412 16.676196 4.816183 22.975674 -0.780723 -2.290347 -35.666840 74.973160 -25.455901 0.000000 0.000000 0.000000 
0.027569 0.942728 -0.336642 6.070944 -13.627793 15.562738 1.253608 -1.423887 -28.926317 -3.996698 0.958645 14.997064 -1.146160 0.648951 10.229309 0.000000 0.000000 0.000000 -14.695604 1.846502 -40.082812 0.103424 1.671821 25.014671 1.702416 -1.908332 9.550103 0.000000 0.000000 0.000000 11.554450 -4.754846 46.760188 2.942700 -1.424655 9.902787 3.527883 3.693763 7.929076 5.743312 -4.337164 -2.025314 0.000000 0.000000 0.000000 -1.952925 -16.906349 6.454598 -35.136873 -0.564586 -4.006548 -71.615957 -70.891174 58.618836 0.000000 0.000000 0.000000 -17.576296 17.295993 4.904022 20.864455 -1.008699 -2.072963 -40.051723 72.220839 -27.293730 0.000000 0.000000 0.000000 
0.026731 0.940130 -0.339745 5.931511 -13.315283 14.721734 1.695307 -1.337257 -29.099336 -4.204548 1.098232 16.730815 -1.000093 0.754165 9.527721 0.000000 0.000000 0.000000 -14.405119 1.863174 -40.154889 0.359325 1.752797 26.842958 1.932543 -0.810228 8.594792 0.000000 0.000000 0.000000 11.159373 -4.593694 46.662814 3.018302 -1.485005 10.080677 3.794801 4.435825 7.602344 6.775109 -5.277485 -1.104402 0.000000 0.000000 0.000000 -2.214735 -16.952931 6.403104 -33.598363 -0.247596 -3.890178 -83.311762 -71.616589 69.583483 0.000000 0.000000 0.000000 -17.192507 18.418264 5.058497 18.560731 -1.029841 -1.826369 -41.834930 68.552742 -26.422446 0.000000 0.000000 0.000000 
0.025680 0.936917 -0.342850 5.850205 -13.039634 14.000728 1.812383 -1.324524 -28.838344 -4.135977 1.122333 17.701791 -0.715415 1.082922 8.788039 0.000000 0.000000 0.000000 -14.478048 1.791099 -40.195843 0.925505 1.660751 28.056133 1.830143 -0.908679 8.434679 0.000000 0.000000 0.000000 10.814319 -4.448528 46.323855 3.112696 -1.556059 10.628424 4.152860 5.216676 6.841254 7.260339 -5.930773 0.482707 0.000000 0.000000 0.000000 -2.557349 -17.386522 6.506807 -32.825542 0.237546 -3.860382 -96.877744 -70.989422 81.745018 0.000000 0.000000 0.000000 -15.991151 19.705940 5.377838 15.636967 -0.506151 -1.478876 -42.295317 64.955528 -24.646321 0.000000 0.000000 0.000000 
